# Blender 4.5.5 LTS
# www.blender.org
mtllib Nascar Intel - Separate Windows.mtl
o Nascar
v -81.274902 3.241020 -241.669998
v -88.954498 3.116722 -188.539001
v -94.599800 -0.828968 -109.189995
v -95.970703 0.101948 98.162407
v -89.308701 14.414654 178.916000
v -81.287804 14.511757 241.145996
v -88.316704 75.519424 -168.026001
v -59.901699 120.306740 -23.079004
v -57.208000 123.514450 102.512993
v -86.076599 65.866814 -214.444000
v -93.049698 67.239204 -169.138000
v -87.568199 21.807621 -234.806000
v -94.359100 21.956024 -189.306000
v -95.914200 41.222824 -186.421997
v -96.145699 61.944313 -164.722000
v -95.595299 62.406830 -133.949005
v -97.702301 33.467731 -109.417000
v -97.841003 63.872337 126.628998
v -99.570702 55.930496 111.873001
v -97.557602 53.397091 164.639999
v -95.003799 39.140053 175.563995
v -85.649696 80.651550 155.891998
v -96.269897 52.741329 -118.651001
v -93.059898 72.517151 181.617004
v -82.517502 72.684258 240.074005
v -85.314301 64.278358 240.766006
v -86.454498 38.989258 241.968002
v -89.241402 41.707123 -224.626007
v -72.012299 85.981262 254.699997
v -74.331200 44.714558 247.516006
v -74.709000 39.196060 253.985992
v -71.416603 15.324757 253.500000
v -73.487099 72.410255 244.483994
v -95.745003 64.169411 181.667007
v -74.682198 42.374657 252.050003
v -99.202904 35.221447 99.264900
v -97.749298 64.204483 151.102005
v -43.791599 65.584511 -230.904007
v -42.310001 42.097618 -242.542999
v -42.232101 21.888519 -250.264008
v -65.943100 0.101948 97.006310
v -65.603699 14.414654 178.916000
v -62.713001 3.116722 -188.539001
v -62.654202 -0.828968 -109.182991
v -84.818802 79.037231 -97.027496
v -95.900101 34.115623 -187.445007
v -89.189400 35.001923 -235.472000
v -42.284698 35.284420 -252.595001
v -45.153999 3.246922 -254.699997
v -73.809799 64.413956 246.667007
v -86.353897 44.777657 241.054993
v -86.244301 42.240257 241.376007
v -56.275600 122.143539 -16.799105
v -72.368401 80.963959 238.216003
v -87.613602 59.613262 -217.078995
v -94.113701 39.124352 182.477005
v -88.536301 14.424053 182.574005
v -60.600899 120.627548 106.850990
v -61.852299 118.579636 -26.173704
v 96.145699 61.944313 -164.722000
v 87.613602 59.613262 -217.078995
v 89.241402 41.707123 -224.626007
v 95.914200 41.222824 -186.421997
v 87.568199 21.807621 -234.806000
v 81.274902 3.241020 -241.669998
v 88.954399 3.116722 -188.539001
v 94.359100 21.956024 -189.306000
v 61.852299 118.579636 -26.173704
v 84.818802 79.037231 -97.027496
v 88.316704 75.519424 -168.026001
v 86.076599 65.866814 -214.444000
v 93.049698 67.239204 -169.138000
v 97.749298 64.204483 151.102005
v 95.745003 64.169411 181.667007
v 93.059898 72.517151 181.617004
v 95.595299 62.406830 -133.949005
v 97.841003 63.872337 126.628998
v 72.012299 85.981262 254.699997
v 72.368401 80.963959 238.216003
v 73.487099 72.410255 244.483994
v 86.244301 42.249260 241.376007
v 86.454498 38.989258 241.968002
v 74.709000 39.196060 253.985992
v 74.682198 42.374657 252.050003
v 81.287804 14.511757 241.145996
v 71.416603 15.324757 253.500000
v 82.517502 72.684258 240.074005
v 85.314301 64.278358 240.766006
v 73.809799 64.413956 246.667007
v 89.189400 35.001923 -235.472000
v 95.900101 34.115623 -187.445007
v 96.269897 52.741329 -118.651001
v 99.570702 55.930496 111.873001
v 97.702301 33.467731 -109.417000
v 99.202904 35.221447 99.264900
v 94.599800 -0.828968 -109.189995
v 95.970703 0.101948 98.162407
v 88.536301 14.424053 182.574005
v 94.113701 39.124352 182.477005
v 86.353897 44.777657 241.054993
v 74.331200 44.714558 247.516006
v 42.232101 21.888519 -250.264008
v 45.153999 3.246922 -254.699997
v 42.310001 42.097618 -242.542999
v 43.791599 65.584511 -230.904007
v 42.284698 35.284420 -252.595001
v 65.943199 0.101948 97.006310
v 65.603699 14.414654 178.916000
v 62.713001 3.116722 -188.539001
v 62.654202 -0.828968 -109.182991
v 57.208000 123.514450 102.512993
v 60.601002 120.627548 106.850990
v 56.275600 122.143539 -16.799105
v 59.901699 120.306740 -23.079004
v 89.308701 14.414654 178.916000
v 97.557602 53.397091 164.639999
v 95.003799 39.140053 175.563995
v 85.649696 80.651550 155.891998
v -95.511703 41.975250 173.391006
v 95.511703 41.975250 173.391006
v -94.426498 41.912155 182.039001
v 94.356598 41.912453 182.033997
vn 0.9729 -0.1592 0.1679
vn 0.9727 -0.1627 0.1657
vn 0.9505 0.2783 0.1380
vn 0.9523 0.2706 0.1412
vn 0.8503 -0.5056 0.1462
vn -0.0000 -0.9988 0.0495
vn 0.9500 -0.3059 -0.0626
vn 0.8585 -0.5127 0.0077
vn 0.8604 -0.5095 -0.0077
vn 0.9115 -0.4111 0.0095
vn 0.5407 -0.8412 0.0094
vn 0.9928 -0.1190 0.0148
vn 0.6605 -0.3946 -0.6387
vn 0.6690 -0.1748 -0.7224
vn 0.7718 0.1192 -0.6246
vn 0.7031 0.1716 -0.6901
vn 0.4235 -0.2134 -0.8804
vn 0.4439 -0.2526 -0.8597
vn 0.9313 -0.3236 -0.1670
vn 0.9386 -0.3029 -0.1651
vn 0.9810 0.1279 0.1460
vn 0.9848 0.1035 0.1395
vn 0.9988 -0.0461 0.0149
vn 0.9732 -0.2299 0.0097
vn 0.9999 0.0134 0.0071
vn 0.9976 -0.0669 0.0152
vn 0.9958 0.0915 0.0062
vn 0.9959 0.0901 0.0064
vn 0.9685 0.2182 -0.1202
vn 0.9700 0.2089 -0.1244
vn 0.9903 0.0255 -0.1367
vn 0.9833 -0.0550 -0.1734
vn 0.9888 0.0563 -0.1380
vn 0.3142 -0.2337 0.9202
vn 0.3271 -0.2670 0.9065
vn 0.3310 -0.3919 0.8584
vn 0.3087 -0.4328 0.8470
vn 0.3297 -0.4024 0.8540
vn 0.3411 0.0891 0.9358
vn 0.3181 0.1637 0.9338
vn 0.6163 -0.7799 -0.1089
vn 0.5777 -0.8113 -0.0901
vn -0.0000 0.9851 -0.1721
vn 0.9849 -0.0228 0.1717
vn 0.9697 -0.2055 0.1317
vn 0.2037 -0.8323 0.5155
vn 0.2055 -0.8099 0.5494
vn 0.4726 -0.0504 -0.8799
vn 0.4564 -0.0375 -0.8890
vn 0.3798 -0.8337 -0.4009
vn 0.4711 -0.0907 -0.8774
vn 0.9880 -0.0871 -0.1274
vn 0.9866 0.0893 -0.1365
vn -0.0000 -0.8325 -0.5540
vn -0.0000 -1.0000 0.0038
vn -0.0000 -0.9999 0.0115
vn -0.0000 -0.8732 0.4873
vn -0.0000 1.0000 -0.0026
vn 0.0002 1.0000 -0.0015
vn -0.0002 1.0000 -0.0015
vn 0.0610 0.9980 -0.0169
vn -0.0000 0.9999 -0.0122
vn -0.0051 1.0000 -0.0028
vn -0.0000 0.9978 -0.0657
vn -0.0000 -0.8278 0.5611
vn 0.9425 -0.2966 0.1540
vn 0.9052 -0.3917 0.1649
vn 0.3418 -0.5842 -0.7362
vn 0.8691 -0.4943 -0.0183
vn 0.7929 -0.6093 0.0092
vn 0.7497 -0.6618 0.0067
vn 0.9958 -0.0642 -0.0654
vn 0.9884 0.0562 -0.1408
vn 0.9877 0.0909 -0.1270
vn 0.9889 0.0825 -0.1235
vn 0.9705 0.2067 -0.1245
vn 0.9554 0.2149 -0.2023
vn 0.8740 -0.1740 -0.4537
vn 0.5218 -0.8530 0.0139
vn 0.6521 -0.7581 0.0055
vn -0.9727 -0.1627 0.1657
vn -0.9729 -0.1592 0.1679
vn -0.9523 0.2706 0.1412
vn -0.9505 0.2783 0.1380
vn -0.8503 -0.5056 0.1462
vn -0.5407 -0.8412 0.0094
vn -0.8604 -0.5095 -0.0077
vn -0.9115 -0.4111 0.0095
vn -0.8585 -0.5127 0.0077
vn -0.9500 -0.3059 -0.0626
vn -0.9928 -0.1190 0.0148
vn -0.6690 -0.1743 -0.7226
vn -0.6605 -0.3946 -0.6387
vn -0.7031 0.1716 -0.6901
vn -0.7718 0.1192 -0.6246
vn -0.4439 -0.2526 -0.8597
vn -0.4235 -0.2134 -0.8804
vn -0.9386 -0.3029 -0.1651
vn -0.9313 -0.3236 -0.1670
vn -0.0000 -0.5202 -0.8541
vn -0.9848 0.1035 0.1395
vn -0.9810 0.1279 0.1460
vn -0.9732 -0.2299 0.0097
vn -0.9988 -0.0461 0.0149
vn -0.9976 -0.0669 0.0152
vn -0.9999 0.0135 0.0071
vn -0.9959 0.0901 0.0064
vn -0.9958 0.0915 0.0062
vn -0.9700 0.2089 -0.1244
vn -0.9685 0.2182 -0.1202
vn -0.9904 0.0257 -0.1355
vn -0.9898 -0.0547 -0.1316
vn -0.9831 0.0585 -0.1736
vn -0.0000 -0.8886 -0.4586
vn -0.3271 -0.2670 0.9065
vn -0.3142 -0.2337 0.9202
vn -0.3297 -0.4024 0.8540
vn -0.3087 -0.4328 0.8470
vn -0.3310 -0.3919 0.8584
vn -0.3181 0.1637 0.9338
vn -0.3411 0.0891 0.9358
vn -0.5777 -0.8113 -0.0901
vn -0.6163 -0.7799 -0.1089
vn -0.0000 0.9988 0.0497
vn -0.9697 -0.2055 0.1317
vn -0.9849 -0.0228 0.1717
vn -0.2055 -0.8099 0.5494
vn -0.2037 -0.8323 0.5155
vn -0.4564 -0.0375 -0.8890
vn -0.4726 -0.0504 -0.8799
vn -0.4710 -0.0910 -0.8774
vn -0.3792 -0.8339 -0.4010
vn -0.0000 0.6014 -0.7989
vn -0.0000 -0.2634 -0.9647
vn 0.0739 -0.9757 0.2065
vn -0.0000 -0.9877 0.1561
vn -0.0739 -0.9757 0.2065
vn -0.0000 1.0000 0.0023
vn -0.0000 1.0000 0.0005
vn 0.0002 1.0000 0.0023
vn -0.0000 1.0000 0.0020
vn -0.0006 1.0000 0.0021
vn -0.0002 1.0000 -0.0045
vn -0.0000 1.0000 -0.0045
vn 0.0002 1.0000 -0.0045
vn -0.0000 -0.4440 0.8960
vn -0.8599 -0.5104 0.0061
vn -0.8475 -0.5308 0.0002
vn -0.0000 0.1714 0.9852
vn -0.0000 -0.9598 0.2807
vn -0.0000 0.0204 -0.9998
vn -0.0000 -0.2315 0.9728
vn -0.0000 -0.0431 -0.9991
vn -0.0000 -0.9567 0.2912
vn -0.9052 -0.3917 0.1649
vn -0.9425 -0.2966 0.1540
vn -0.3418 -0.5842 -0.7362
vn -0.8691 -0.4943 -0.0183
vn -0.7929 -0.6093 0.0092
vn -0.7497 -0.6618 0.0067
vn -0.9880 0.0593 -0.1427
vn -0.9958 -0.0642 -0.0654
vn -0.9554 0.2149 -0.2023
vn -0.9705 0.2067 -0.1245
vn -0.6521 -0.7581 0.0055
vn -0.8740 -0.1740 -0.4537
vn -0.5218 -0.8530 0.0139
vn 0.8651 -0.5017 -0.0004
vn 0.8508 -0.5255 0.0061
vn -0.0000 -0.7751 -0.6318
vn -0.9880 -0.0868 -0.1274
vn -0.9887 0.0646 -0.1355
vn -0.9884 0.0762 -0.1315
vn -0.9897 0.0660 -0.1273
vn -0.9884 0.0763 -0.1315
vt 0.057521 0.137543
vt 0.041965 0.104258
vt 0.121076 0.104249
vt 0.164380 0.136932
vt 0.007459 0.019770
vt 0.115949 0.014736
vt 0.114084 0.049190
vt 0.021187 0.053109
vt 0.158392 0.172262
vt 0.063006 0.151127
vt 0.155496 0.149538
vt 0.244334 0.692783
vt 0.352862 0.687087
vt 0.352862 0.991720
vt 0.244334 0.986024
vt 0.811659 0.136165
vt 0.871117 0.138817
vt 0.872350 0.153753
vt 0.227488 0.137709
vt 0.761490 0.135800
vt 0.200566 0.429231
vt 0.212593 0.465764
vt 0.188926 0.465317
vt 0.343461 0.276092
vt 0.313363 0.274334
vt 0.313313 0.285937
vt 0.343998 0.295898
vt 0.335844 0.230152
vt 0.307193 0.228708
vt 0.311073 0.350705
vt 0.338649 0.350814
vt 0.342555 0.332150
vt 0.311678 0.332143
vt 0.996122 0.141618
vt 0.994857 0.160173
vt 0.020509 0.079164
vt 0.117815 0.079018
vt 0.258807 0.118769
vt 0.731150 0.120134
vt 0.277658 0.073009
vt 0.705327 0.072786
vt 0.278290 0.006752
vt 0.703242 0.004987
vt 0.876568 0.082013
vt 0.881453 0.036048
vt 0.997119 0.039260
vt 0.998524 0.084977
vt 0.875292 0.099095
vt 0.997323 0.099333
vt 0.996660 0.103516
vt 0.004385 0.693707
vt 0.034998 0.680990
vt 0.034965 0.761676
vt 0.002602 0.756694
vt 0.083212 0.761543
vt 0.083165 0.673983
vt 0.112357 0.675897
vt 0.123454 0.677131
vt 0.123481 0.762019
vt 0.063108 0.678771
vt 0.063472 0.761586
vt 0.991596 0.182277
vt 0.822133 0.175804
vt 0.154684 0.045968
vt 0.154899 0.005296
vt 0.219010 0.005660
vt 0.219127 0.046333
vt 0.312655 0.296875
vt 0.701367 0.736670
vt 0.709383 0.730577
vt 0.709383 0.948230
vt 0.701367 0.942137
vt 0.999041 0.709445
vt 0.999041 0.969362
vt 0.849428 0.993212
vt 0.847475 0.685595
vt 0.498179 0.940462
vt 0.498179 0.738344
vt 0.481650 0.728330
vt 0.487062 0.737472
vt 0.487062 0.941335
vt 0.481650 0.950477
vt 0.231315 0.466386
vt 0.231652 0.469306
vt 0.220069 0.469240
vt 0.228159 0.438983
vt 0.155958 0.468877
vt 0.144375 0.468811
vt 0.144793 0.465895
vt 0.148721 0.438533
vt 0.153600 0.432500
vt 0.223392 0.432896
vt 0.083212 0.905837
vt 0.063472 0.905794
vt 0.324027 0.372908
vt 0.303751 0.176566
vt 0.839419 0.115446
vt 0.861949 0.081694
vt 0.851423 0.098985
vt 0.869127 0.035706
vt 0.469745 0.275822
vt 0.456847 0.272017
vt 0.450228 0.265958
vt 0.714258 0.276384
vt 0.722965 0.268820
vt 0.056898 0.562015
vt 0.163758 0.561404
vt 0.120453 0.528721
vt 0.041342 0.528730
vt 0.006836 0.444242
vt 0.020565 0.477581
vt 0.113462 0.473662
vt 0.115326 0.439208
vt 0.157770 0.596734
vt 0.154873 0.574010
vt 0.062383 0.575599
vt 0.811036 0.560637
vt 0.760868 0.560272
vt 0.226865 0.562181
vt 0.871727 0.578225
vt 0.870494 0.563289
vt 0.181010 0.465960
vt 0.170761 0.429455
vt 0.194428 0.429915
vt 0.003042 0.276092
vt 0.002490 0.296824
vt 0.033293 0.285937
vt 0.033243 0.274334
vt 0.010659 0.230152
vt 0.039413 0.228708
vt 0.035533 0.350705
vt 0.034928 0.332143
vt 0.003949 0.332150
vt 0.007855 0.350814
vt 0.995500 0.566090
vt 0.994234 0.584645
vt 0.019887 0.503636
vt 0.117193 0.503489
vt 0.730527 0.544606
vt 0.258184 0.543241
vt 0.277035 0.497481
vt 0.704704 0.497257
vt 0.277668 0.431224
vt 0.702619 0.429459
vt 0.875945 0.506485
vt 0.997902 0.509449
vt 0.996496 0.463732
vt 0.880830 0.460520
vt 0.997317 0.524442
vt 0.997374 0.522529
vt 0.874968 0.521778
vt 0.033951 0.296875
vt 0.004179 0.975877
vt 0.002602 0.910686
vt 0.034965 0.905704
vt 0.036261 0.989248
vt 0.123481 0.911365
vt 0.123639 0.999052
vt 0.112026 1.000310
vt 0.083142 0.996918
vt 0.064957 0.991560
vt 0.821511 0.600276
vt 0.990974 0.606749
vt 0.158059 0.043839
vt 0.158779 0.005426
vt 0.220008 0.005773
vt 0.219345 0.044186
vt 0.579382 0.347704
vt 0.581290 0.363168
vt 0.391165 0.363168
vt 0.393073 0.347704
vt 0.131361 0.760763
vt 0.160867 0.684828
vt 0.131361 0.918044
vt 0.160867 0.993979
vt 0.219047 0.044720
vt 0.231869 0.044647
vt 0.227744 0.018810
vt 0.210005 0.012567
vt 0.165878 0.012817
vt 0.157760 0.045067
vt 0.148318 0.019260
vt 0.144938 0.045140
vt 0.203299 0.006988
vt 0.209079 0.006799
vt 0.208264 0.046560
vt 0.202118 0.046524
vt 0.178012 0.046387
vt 0.177928 0.006844
vt 0.171867 0.046354
vt 0.172154 0.006589
vt 0.303128 0.601038
vt 0.449605 0.690430
vt 0.722225 0.694493
vt 0.579408 0.321637
vt 0.579869 0.340419
vt 0.392638 0.340419
vt 0.393099 0.321637
vt 0.022476 0.372908
vt 0.838797 0.539918
vt 0.868505 0.460178
vt 0.861327 0.506166
vt 0.851695 0.521669
s 0
usemtl 01_-_Default.002
f 55/1/1 14/3/1 28/2/1
f 14/3/2 55/1/2 15/4/2
f 1/5/3 13/7/3 2/6/3
f 13/7/4 1/5/4 12/8/4
f 7/9/5 11/11/5 10/10/5
f 7/12/6 69/14/6 45/13/6
f 69/14/6 7/12/6 70/15/6
f 37/16/7 24/18/7 34/17/7
f 37/16/8 11/11/8 24/18/8
f 11/11/9 16/19/9 15/4/9
f 37/16/10 16/19/10 11/11/10
f 37/16/11 18/20/11 16/19/11
f 29/21/12 33/23/12 54/22/12
f 27/24/13 35/26/13 31/25/13
f 35/26/14 27/24/14 52/27/14
f 6/28/15 31/25/15 32/29/15
f 31/25/16 6/28/16 27/24/16
f 33/30/17 26/32/17 25/31/17
f 26/32/18 33/30/18 50/33/18
f 26/34/19 24/18/19 25/35/19
f 24/18/20 26/34/20 34/17/20
f 47/36/21 13/7/21 12/8/21
f 13/7/22 47/36/22 46/37/22
f 16/19/23 19/39/23 23/38/23
f 19/39/24 16/19/24 18/20/24
f 17/40/25 19/39/25 36/41/25
f 19/39/26 17/40/26 23/38/26
f 3/42/27 36/41/27 4/43/27
f 36/41/28 3/42/28 17/40/28
f 56/44/29 6/46/29 57/45/29
f 6/46/30 56/44/30 27/47/30
f 121/48/31 51/50/31 52/49/31
f 51/50/32 34/17/32 26/34/32
f 121/48/33 34/17/33 51/50/33
f 1/51/34 40/53/34 12/52/34
f 40/53/35 1/51/35 49/54/35
f 39/55/36 55/57/36 28/56/36
f 39/55/37 10/58/37 55/57/37
f 39/55/38 38/59/38 10/58/38
f 12/52/39 48/61/39 47/60/39
f 48/61/40 12/52/40 40/53/40
f 24/18/41 54/62/41 25/35/41
f 54/62/42 24/18/42 22/63/42
f 107/64/43 42/66/43 108/65/43
f 42/66/43 107/64/43 41/67/43
f 46/37/44 28/2/44 14/3/44
f 28/2/45 46/37/45 47/36/45
f 47/60/46 39/55/46 28/56/46
f 39/55/47 47/60/47 48/61/47
f 51/27/48 50/33/48 30/68/48
f 50/33/49 51/27/49 26/32/49
f 52/27/50 30/68/50 35/26/50
f 30/68/51 52/27/51 51/27/51
f 56/44/52 52/49/52 27/47/52
f 52/49/53 56/44/53 121/48/53
f 9/69/54 112/71/54 58/70/54
f 112/71/54 9/69/54 111/72/54
f 54/73/55 118/75/55 79/74/55
f 118/75/55 54/73/55 22/76/55
f 9/69/56 113/77/56 111/72/56
f 113/77/56 9/69/56 53/78/56
f 45/13/57 8/80/57 59/79/57
f 114/81/57 69/14/57 68/82/57
f 57/83/58 42/85/58 5/84/58
f 6/86/59 42/85/59 57/83/59
f 108/87/58 98/89/58 115/88/58
f 108/87/60 85/90/60 98/89/60
f 108/87/61 86/91/61 85/90/61
f 42/85/62 86/91/62 108/87/62
f 6/86/63 86/91/63 42/85/63
f 32/92/64 86/91/64 6/86/64
f 48/61/65 104/93/65 39/55/65
f 104/93/65 48/61/65 106/94/65
f 11/11/66 55/1/66 10/10/66
f 55/1/67 11/11/67 15/4/67
f 54/95/68 33/30/68 25/31/68
f 45/96/69 11/11/69 7/9/69
f 45/96/70 24/18/70 11/11/70
f 22/63/71 24/18/71 45/96/71
f 34/17/72 20/97/72 37/16/72
f 20/97/73 34/17/73 121/48/73
f 21/98/74 121/48/74 56/44/74
f 121/48/75 21/98/75 119/99/75
f 56/44/76 5/100/76 21/98/76
f 5/100/77 56/44/77 57/45/77
f 53/101/78 59/103/78 8/102/78
f 9/104/79 59/103/79 53/101/79
f 9/104/80 58/105/80 59/103/80
f 61/106/81 63/108/81 60/107/81
f 63/108/82 61/106/82 62/109/82
f 65/110/83 67/112/83 64/111/83
f 67/112/84 65/110/84 66/113/84
f 70/114/85 71/116/85 72/115/85
f 73/117/86 76/119/86 77/118/86
f 76/119/87 72/115/87 60/107/87
f 73/117/88 72/115/88 76/119/88
f 73/117/89 75/120/89 72/115/89
f 73/117/90 74/121/90 75/120/90
f 78/122/91 79/124/91 80/123/91
f 82/125/92 84/127/92 81/126/92
f 84/127/93 82/125/93 83/128/93
f 85/129/94 83/128/94 82/125/94
f 83/128/95 85/129/95 86/130/95
f 80/131/96 88/133/96 89/132/96
f 88/133/97 80/131/97 87/134/97
f 88/135/98 75/120/98 74/121/98
f 75/120/99 88/135/99 87/136/99
f 84/26/100 31/128/100 35/127/100
f 31/128/100 84/26/100 83/25/100
f 90/137/101 67/112/101 91/138/101
f 67/112/102 90/137/102 64/111/102
f 76/119/103 93/139/103 77/118/103
f 93/139/104 76/119/104 92/140/104
f 94/141/105 93/139/105 92/140/105
f 93/139/106 94/141/106 95/142/106
f 96/143/107 95/142/107 94/141/107
f 95/142/108 96/143/108 97/144/108
f 99/145/109 85/147/109 82/146/109
f 85/147/110 99/145/110 98/148/110
f 100/149/111 122/151/111 81/150/111
f 88/135/112 122/151/112 100/149/112
f 74/121/113 122/151/113 88/135/113
f 101/68/114 35/127/114 30/152/114
f 35/127/114 101/68/114 84/26/114
f 65/153/115 102/155/115 103/154/115
f 102/155/116 65/153/116 64/156/116
f 104/93/117 71/158/117 105/157/117
f 104/93/118 61/159/118 71/158/118
f 104/93/119 62/160/119 61/159/119
f 64/156/120 106/94/120 102/155/120
f 106/94/121 64/156/121 90/161/121
f 75/120/122 79/163/122 118/162/122
f 79/163/123 75/120/123 87/136/123
f 109/164/124 44/166/124 110/165/124
f 44/166/124 109/164/124 43/167/124
f 91/138/125 62/109/125 90/137/125
f 62/109/126 91/138/126 63/108/126
f 90/161/127 104/93/127 106/94/127
f 104/93/128 90/161/128 62/160/128
f 100/126/129 89/132/129 88/133/129
f 89/132/130 100/126/130 101/152/130
f 81/126/131 101/152/131 100/126/131
f 101/152/132 81/126/132 84/127/132
f 29/168/133 80/170/133 33/169/133
f 80/170/133 29/168/133 78/171/133
f 80/30/134 50/132/134 33/131/134
f 50/132/134 80/30/134 89/33/134
f 38/172/135 7/12/135 10/173/135
f 38/172/136 70/15/136 7/12/136
f 105/174/136 70/15/136 38/172/136
f 105/174/137 71/175/137 70/15/137
f 43/176/138 1/178/138 2/177/138
f 1/178/139 103/180/139 49/179/139
f 43/176/140 103/180/140 1/178/140
f 109/181/141 103/180/141 43/176/141
f 109/181/142 65/182/142 103/180/142
f 109/181/138 66/183/138 65/182/138
f 41/184/143 3/186/143 4/185/143
f 41/184/144 44/187/144 3/186/144
f 41/184/144 110/188/144 44/187/144
f 107/189/144 110/188/144 41/184/144
f 107/189/144 96/190/144 110/188/144
f 107/189/145 97/191/145 96/190/145
f 39/55/146 105/157/146 38/59/146
f 105/157/146 39/55/146 104/93/146
f 118/162/147 68/193/147 69/192/147
f 68/193/148 118/162/148 112/194/148
f 40/53/149 106/94/149 48/61/149
f 106/94/149 40/53/149 102/155/149
f 53/78/150 114/81/150 113/77/150
f 114/81/150 53/78/150 8/80/150
f 32/130/151 83/25/151 86/29/151
f 83/25/151 32/130/151 31/128/151
f 40/53/152 103/154/152 102/155/152
f 103/154/152 40/53/152 49/54/152
f 50/132/153 101/68/153 30/152/153
f 101/68/153 50/132/153 89/33/153
f 78/195/154 54/197/154 79/196/154
f 54/197/154 78/195/154 29/198/154
f 72/115/155 61/106/155 60/107/155
f 61/106/156 72/115/156 71/116/156
f 79/199/157 87/134/157 80/131/157
f 72/115/158 69/192/158 70/114/158
f 75/120/159 69/192/159 72/115/159
f 118/162/160 69/192/160 75/120/160
f 74/121/161 116/200/161 122/151/161
f 116/200/162 74/121/162 73/117/162
f 99/145/163 115/201/163 98/148/163
f 115/201/164 99/145/164 117/202/164
f 111/104/165 68/103/165 112/105/165
f 68/103/166 113/101/166 114/102/166
f 111/104/167 113/101/167 68/103/167
f 58/105/168 45/96/168 59/103/168
f 45/96/169 58/105/169 22/63/169
f 81/150/171 99/145/171 82/146/171
f 99/145/172 81/150/172 122/151/172
f 117/202/173 122/151/173 120/203/173
f 122/151/174 117/202/174 99/145/174
f 121/48/75 119/99/75 20/97/75
f 120/203/175 122/151/175 116/200/175

o Nascar_Front_Window
g Front_Window
s 0
usemtl Front_Window
f 8/80/57 69/14/57 114/81/57
f 45/13/57 69/14/57 8/80/57

o Nascar_Rear_Window
g Rear_Window
s 0
usemtl Rear_Window
f 58/70/170 118/75/170 22/76/170
f 118/75/170 58/70/170 112/71/170
g off

o Nascar_wheel
v 67.811737 43.895927 -183.556381
v 67.811737 17.159824 -188.312820
v 67.811737 -6.378513 -174.770828
v 67.811737 -15.705324 -149.266830
v 67.811737 -6.456476 -123.734474
v 67.811737 17.040462 -110.120682
v 67.811737 43.790913 -114.795456
v 67.811737 61.278160 -135.571396
v 67.811737 61.319611 -162.727173
v 95.903992 43.895927 -183.556381
v 95.903992 17.159824 -188.312820
v 95.903992 -6.378513 -174.770828
v 95.903992 -15.705324 -149.266830
v 95.903992 -6.456476 -123.734474
v 95.903992 17.040462 -110.120682
v 95.903992 43.790913 -114.795456
v 95.903992 61.278160 -135.571396
v 95.903992 61.319611 -162.727173
v 95.903992 43.895927 -183.556381
v 95.903992 17.159824 -188.312820
v 95.903992 -6.378513 -174.770828
v 95.903992 -15.705324 -149.266830
v 95.903992 -6.456476 -123.734474
v 95.903992 17.040462 -110.120682
v 95.903992 43.790913 -114.795456
v 95.903992 61.278160 -135.571396
v 95.903992 61.319611 -162.727173
v 67.811737 43.895927 -183.556381
v 67.811737 17.159824 -188.312820
v 67.811737 -6.378513 -174.770828
v 67.811737 -15.705324 -149.266830
v 67.811737 -6.456476 -123.734474
v 67.811737 17.040462 -110.120682
v 67.811737 43.790913 -114.795456
v 67.811737 61.278160 -135.571396
v 67.811737 61.319611 -162.727173
vn -0.0000 -0.1752 0.9845
vn -0.0000 0.4987 0.8668
vn -0.0000 0.9392 0.3435
vn -0.0000 0.9402 -0.3406
vn -0.0000 0.5013 -0.8653
vn -0.0000 -0.1721 -0.9851
vn -0.0000 -0.7651 -0.6440
vn -0.0000 -1.0000 -0.0015
vn -0.0000 -0.7670 0.6416
vn 1.0000 -0.0000 -0.0000
vn -1.0000 -0.0000 -0.0000
vt 0.691568 0.386340
vt 0.625461 0.386340
vt 0.625461 0.313564
vt 0.691568 0.313564
vt 0.756731 0.382997
vt 0.695806 0.382997
vt 0.695806 0.310221
vt 0.756731 0.310221
vt 0.626524 0.382997
vt 0.626524 0.310221
vt 0.746787 0.384896
vt 0.692896 0.384896
vt 0.689995 0.310755
vt 0.746787 0.312120
vt 0.622546 0.384896
vt 0.622546 0.312120
vt 0.680285 0.383453
vt 0.626394 0.383453
vt 0.626394 0.310677
vt 0.680285 0.310677
vt 0.752400 0.389299
vt 0.683119 0.389299
vt 0.680778 0.317162
vt 0.752400 0.316523
vt 0.621455 0.387953
vt 0.622194 0.316523
vt 0.755548 0.388468
vt 0.757676 0.313564
vt 0.957984 0.261575
vt 0.991049 0.319048
vt 0.979436 0.384329
vt 0.895712 0.238802
vt 0.928578 0.426872
vt 0.833370 0.261385
vt 0.862272 0.426770
vt 0.800130 0.318757
vt 0.811544 0.384072
s 0
usemtl 01_-_Default.002
f 123/204/176 124/205/176 133/206/176
f 133/206/176 132/207/176 123/204/176
f 124/208/177 125/209/177 134/210/177
f 134/210/177 133/211/177 124/208/177
f 125/209/178 126/212/178 135/213/178
f 135/213/178 134/210/178 125/209/178
f 126/214/179 127/215/179 136/216/179
f 136/216/179 135/217/179 126/214/179
f 127/215/180 128/218/180 137/219/180
f 137/219/180 136/216/180 127/215/180
f 128/220/181 129/221/181 138/222/181
f 138/222/181 137/223/181 128/220/181
f 129/224/182 130/225/182 139/226/182
f 139/226/182 138/227/182 129/224/182
f 130/225/183 131/228/183 140/229/183
f 140/229/183 139/226/183 130/225/183
f 131/230/184 123/204/184 132/207/184
f 132/207/184 140/231/184 131/230/184
f 125/232/185 124/233/185 123/234/185
f 123/234/185 126/235/185 125/232/185
f 126/235/185 123/234/185 131/236/185
f 131/236/185 127/237/185 126/235/185
f 127/237/185 131/236/185 130/238/185
f 130/238/185 128/239/185 127/237/185
f 129/240/185 128/239/185 130/238/185
f 141/204/176 151/206/176 142/205/176
f 151/206/176 141/204/176 150/207/176
f 142/208/177 152/210/177 143/209/177
f 152/210/177 142/208/177 151/211/177
f 143/209/178 153/213/178 144/212/178
f 153/213/178 143/209/178 152/210/178
f 144/214/179 154/216/179 145/215/179
f 154/216/179 144/214/179 153/217/179
f 145/215/180 155/219/180 146/218/180
f 155/219/180 145/215/180 154/216/180
f 146/220/181 156/222/181 147/221/181
f 156/222/181 146/220/181 155/223/181
f 147/224/182 157/226/182 148/225/182
f 157/226/182 147/224/182 156/227/182
f 148/225/183 158/229/183 149/228/183
f 158/229/183 148/225/183 157/226/183
f 149/230/184 150/207/184 141/204/184
f 150/207/184 149/230/184 158/231/184
f 143/232/186 141/234/186 142/233/186
f 141/234/186 143/232/186 144/235/186
f 144/235/186 149/236/186 141/234/186
f 149/236/186 144/235/186 145/237/186
f 145/237/186 148/238/186 149/236/186
f 148/238/186 145/237/186 146/239/186
f 147/240/186 148/238/186 146/239/186
o Nascar_wheel.001
v 70.077507 43.895927 103.564529
v 70.077507 17.159824 98.808090
v 70.077507 -6.378513 112.350082
v 70.077507 -15.705324 137.854080
v 70.077507 -6.456476 163.386444
v 70.077507 17.040462 177.000229
v 70.077507 43.790913 172.325455
v 70.077507 61.278160 151.549515
v 70.077507 61.319611 124.393738
v 98.169762 43.895927 103.564529
v 98.169762 17.159824 98.808090
v 98.169762 -6.378513 112.350082
v 98.169762 -15.705324 137.854080
v 98.169762 -6.456476 163.386444
v 98.169762 17.040462 177.000229
v 98.169762 43.790913 172.325455
v 98.169762 61.278160 151.549515
v 98.169762 61.319611 124.393738
v 98.169762 43.895927 103.564529
v 98.169762 17.159824 98.808090
v 98.169762 -6.378513 112.350082
v 98.169762 -15.705324 137.854080
v 98.169762 -6.456476 163.386444
v 98.169762 17.040462 177.000229
v 98.169762 43.790913 172.325455
v 98.169762 61.278160 151.549515
v 98.169762 61.319611 124.393738
v 70.077507 43.895927 103.564529
v 70.077507 17.159824 98.808090
v 70.077507 -6.378513 112.350082
v 70.077507 -15.705324 137.854080
v 70.077507 -6.456476 163.386444
v 70.077507 17.040462 177.000229
v 70.077507 43.790913 172.325455
v 70.077507 61.278160 151.549515
v 70.077507 61.319611 124.393738
vn -0.0000 -0.1752 0.9845
vn -0.0000 0.4987 0.8668
vn -0.0000 0.9392 0.3435
vn -0.0000 0.9402 -0.3406
vn -0.0000 0.5013 -0.8653
vn -0.0000 -0.1721 -0.9851
vn -0.0000 -0.7651 -0.6440
vn -0.0000 -1.0000 -0.0015
vn -0.0000 -0.7670 0.6416
vn 1.0000 -0.0000 -0.0000
vn -1.0000 -0.0000 -0.0000
vt 0.691568 0.386340
vt 0.625461 0.386340
vt 0.625461 0.313564
vt 0.691568 0.313564
vt 0.756731 0.382997
vt 0.695806 0.382997
vt 0.695806 0.310221
vt 0.756731 0.310221
vt 0.626524 0.382997
vt 0.626524 0.310221
vt 0.746787 0.384896
vt 0.692896 0.384896
vt 0.689995 0.310755
vt 0.746787 0.312120
vt 0.622546 0.384896
vt 0.622546 0.312120
vt 0.680285 0.383453
vt 0.626394 0.383453
vt 0.626394 0.310677
vt 0.680285 0.310677
vt 0.752400 0.389299
vt 0.683119 0.389299
vt 0.680778 0.317162
vt 0.752400 0.316523
vt 0.621455 0.387953
vt 0.622194 0.316523
vt 0.755548 0.388468
vt 0.757676 0.313564
vt 0.957984 0.261575
vt 0.991049 0.319048
vt 0.979436 0.384329
vt 0.895712 0.238802
vt 0.928578 0.426872
vt 0.833370 0.261385
vt 0.862272 0.426770
vt 0.800130 0.318757
vt 0.811544 0.384072
s 0
usemtl 01_-_Default.004
f 159/241/187 160/242/187 169/243/187
f 169/243/187 168/244/187 159/241/187
f 160/245/188 161/246/188 170/247/188
f 170/247/188 169/248/188 160/245/188
f 161/246/189 162/249/189 171/250/189
f 171/250/189 170/247/189 161/246/189
f 162/251/190 163/252/190 172/253/190
f 172/253/190 171/254/190 162/251/190
f 163/252/191 164/255/191 173/256/191
f 173/256/191 172/253/191 163/252/191
f 164/257/192 165/258/192 174/259/192
f 174/259/192 173/260/192 164/257/192
f 165/261/193 166/262/193 175/263/193
f 175/263/193 174/264/193 165/261/193
f 166/262/194 167/265/194 176/266/194
f 176/266/194 175/263/194 166/262/194
f 167/267/195 159/241/195 168/244/195
f 168/244/195 176/268/195 167/267/195
f 161/269/196 160/270/196 159/271/196
f 159/271/196 162/272/196 161/269/196
f 162/272/196 159/271/196 167/273/196
f 167/273/196 163/274/196 162/272/196
f 163/274/196 167/273/196 166/275/196
f 166/275/196 164/276/196 163/274/196
f 165/277/196 164/276/196 166/275/196
f 177/241/187 187/243/187 178/242/187
f 187/243/187 177/241/187 186/244/187
f 178/245/188 188/247/188 179/246/188
f 188/247/188 178/245/188 187/248/188
f 179/246/189 189/250/189 180/249/189
f 189/250/189 179/246/189 188/247/189
f 180/251/190 190/253/190 181/252/190
f 190/253/190 180/251/190 189/254/190
f 181/252/191 191/256/191 182/255/191
f 191/256/191 181/252/191 190/253/191
f 182/257/192 192/259/192 183/258/192
f 192/259/192 182/257/192 191/260/192
f 183/261/193 193/263/193 184/262/193
f 193/263/193 183/261/193 192/264/193
f 184/262/194 194/266/194 185/265/194
f 194/266/194 184/262/194 193/263/194
f 185/267/195 186/244/195 177/241/195
f 186/244/195 185/267/195 194/268/195
f 179/269/197 177/271/197 178/270/197
f 177/271/197 179/269/197 180/272/197
f 180/272/197 185/273/197 177/271/197
f 185/273/197 180/272/197 181/274/197
f 181/274/197 184/275/197 185/273/197
f 184/275/197 181/274/197 182/276/197
f 183/277/197 184/275/197 182/276/197
o Nascar_wheel.002
v -98.278809 43.895927 171.591995
v -98.278809 17.159824 176.348434
v -98.278809 -6.378513 162.806442
v -98.278809 -15.705324 137.302444
v -98.278809 -6.456476 111.770088
v -98.278809 17.040462 98.156296
v -98.278809 43.790913 102.831070
v -98.278809 61.278160 123.607010
v -98.278809 61.319611 150.762787
v -70.186554 43.895927 171.591995
v -70.186554 17.159824 176.348434
v -70.186554 -6.378513 162.806442
v -70.186554 -15.705324 137.302444
v -70.186554 -6.456476 111.770088
v -70.186554 17.040462 98.156296
v -70.186554 43.790913 102.831070
v -70.186554 61.278160 123.607010
v -70.186554 61.319611 150.762787
v -70.186554 43.895927 171.591995
v -70.186554 17.159824 176.348434
v -70.186554 -6.378513 162.806442
v -70.186554 -15.705324 137.302444
v -70.186554 -6.456476 111.770088
v -70.186554 17.040462 98.156296
v -70.186554 43.790913 102.831070
v -70.186554 61.278160 123.607010
v -70.186554 61.319611 150.762787
v -98.278809 43.895927 171.591995
v -98.278809 17.159824 176.348434
v -98.278809 -6.378513 162.806442
v -98.278809 -15.705324 137.302444
v -98.278809 -6.456476 111.770088
v -98.278809 17.040462 98.156296
v -98.278809 43.790913 102.831070
v -98.278809 61.278160 123.607010
v -98.278809 61.319611 150.762787
vn -0.0000 -0.1752 -0.9845
vn -0.0000 0.4987 -0.8668
vn -0.0000 0.9392 -0.3435
vn -0.0000 0.9402 0.3406
vn -0.0000 0.5013 0.8653
vn -0.0000 -0.1721 0.9851
vn -0.0000 -0.7651 0.6440
vn -0.0000 -1.0000 0.0015
vn -0.0000 -0.7670 -0.6416
vn 1.0000 -0.0000 -0.0000
vn -1.0000 -0.0000 -0.0000
vt 0.691568 0.386340
vt 0.625461 0.386340
vt 0.625461 0.313564
vt 0.691568 0.313564
vt 0.756731 0.382997
vt 0.695806 0.382997
vt 0.695806 0.310221
vt 0.756731 0.310221
vt 0.626524 0.382997
vt 0.626524 0.310221
vt 0.746787 0.384896
vt 0.692896 0.384896
vt 0.689995 0.310755
vt 0.746787 0.312120
vt 0.622546 0.384896
vt 0.622546 0.312120
vt 0.680285 0.383453
vt 0.626394 0.383453
vt 0.626394 0.310677
vt 0.680285 0.310677
vt 0.752400 0.389299
vt 0.683119 0.389299
vt 0.680778 0.317162
vt 0.752400 0.316523
vt 0.621455 0.387953
vt 0.622194 0.316523
vt 0.755548 0.388468
vt 0.757676 0.313564
vt 0.957984 0.261575
vt 0.991049 0.319048
vt 0.979436 0.384329
vt 0.895712 0.238802
vt 0.928578 0.426872
vt 0.833370 0.261385
vt 0.862272 0.426770
vt 0.800130 0.318757
vt 0.811544 0.384072
s 0
usemtl 01_-_Default.005
f 195/278/198 205/280/198 196/279/198
f 205/280/198 195/278/198 204/281/198
f 196/282/199 206/284/199 197/283/199
f 206/284/199 196/282/199 205/285/199
f 197/283/200 207/287/200 198/286/200
f 207/287/200 197/283/200 206/284/200
f 198/288/201 208/290/201 199/289/201
f 208/290/201 198/288/201 207/291/201
f 199/289/202 209/293/202 200/292/202
f 209/293/202 199/289/202 208/290/202
f 200/294/203 210/296/203 201/295/203
f 210/296/203 200/294/203 209/297/203
f 201/298/204 211/300/204 202/299/204
f 211/300/204 201/298/204 210/301/204
f 202/299/205 212/303/205 203/302/205
f 212/303/205 202/299/205 211/300/205
f 203/304/206 204/281/206 195/278/206
f 204/281/206 203/304/206 212/305/206
f 197/306/207 195/308/207 196/307/207
f 195/308/207 197/306/207 198/309/207
f 198/309/207 203/310/207 195/308/207
f 203/310/207 198/309/207 199/311/207
f 199/311/207 202/312/207 203/310/207
f 202/312/207 199/311/207 200/313/207
f 201/314/207 202/312/207 200/313/207
f 213/278/198 214/279/198 223/280/198
f 223/280/198 222/281/198 213/278/198
f 214/282/199 215/283/199 224/284/199
f 224/284/199 223/285/199 214/282/199
f 215/283/200 216/286/200 225/287/200
f 225/287/200 224/284/200 215/283/200
f 216/288/201 217/289/201 226/290/201
f 226/290/201 225/291/201 216/288/201
f 217/289/202 218/292/202 227/293/202
f 227/293/202 226/290/202 217/289/202
f 218/294/203 219/295/203 228/296/203
f 228/296/203 227/297/203 218/294/203
f 219/298/204 220/299/204 229/300/204
f 229/300/204 228/301/204 219/298/204
f 220/299/205 221/302/205 230/303/205
f 230/303/205 229/300/205 220/299/205
f 221/304/206 213/278/206 222/281/206
f 222/281/206 230/305/206 221/304/206
f 215/306/208 214/307/208 213/308/208
f 213/308/208 216/309/208 215/306/208
f 216/309/208 213/308/208 221/310/208
f 221/310/208 217/311/208 216/309/208
f 217/311/208 221/310/208 220/312/208
f 220/312/208 218/313/208 217/311/208
f 219/314/208 218/313/208 220/312/208
o Nascar_wheel.003
v -97.161163 43.895927 -115.354080
v -97.161163 17.159824 -110.597641
v -97.161163 -6.378513 -124.139633
v -97.161163 -15.705324 -149.643631
v -97.161163 -6.456476 -175.175995
v -97.161163 17.040462 -188.789780
v -97.161163 43.790913 -184.115005
v -97.161163 61.278160 -163.339066
v -97.161163 61.319611 -136.183289
v -69.068909 43.895927 -115.354080
v -69.068909 17.159824 -110.597641
v -69.068909 -6.378513 -124.139633
v -69.068909 -15.705324 -149.643631
v -69.068909 -6.456476 -175.175995
v -69.068909 17.040462 -188.789780
v -69.068909 43.790913 -184.115005
v -69.068909 61.278160 -163.339066
v -69.068909 61.319611 -136.183289
v -69.068909 43.895927 -115.354080
v -69.068909 17.159824 -110.597641
v -69.068909 -6.378513 -124.139633
v -69.068909 -15.705324 -149.643631
v -69.068909 -6.456476 -175.175995
v -69.068909 17.040462 -188.789780
v -69.068909 43.790913 -184.115005
v -69.068909 61.278160 -163.339066
v -69.068909 61.319611 -136.183289
v -97.161163 43.895927 -115.354080
v -97.161163 17.159824 -110.597641
v -97.161163 -6.378513 -124.139633
v -97.161163 -15.705324 -149.643631
v -97.161163 -6.456476 -175.175995
v -97.161163 17.040462 -188.789780
v -97.161163 43.790913 -184.115005
v -97.161163 61.278160 -163.339066
v -97.161163 61.319611 -136.183289
vn -0.0000 -0.1752 -0.9845
vn -0.0000 0.4987 -0.8668
vn -0.0000 0.9392 -0.3435
vn -0.0000 0.9402 0.3406
vn -0.0000 0.5013 0.8653
vn -0.0000 -0.1721 0.9851
vn -0.0000 -0.7651 0.6440
vn -0.0000 -1.0000 0.0015
vn -0.0000 -0.7670 -0.6416
vn 1.0000 -0.0000 -0.0000
vn -1.0000 -0.0000 -0.0000
vt 0.691568 0.386340
vt 0.625461 0.386340
vt 0.625461 0.313564
vt 0.691568 0.313564
vt 0.756731 0.382997
vt 0.695806 0.382997
vt 0.695806 0.310221
vt 0.756731 0.310221
vt 0.626524 0.382997
vt 0.626524 0.310221
vt 0.746787 0.384896
vt 0.692896 0.384896
vt 0.689995 0.310755
vt 0.746787 0.312120
vt 0.622546 0.384896
vt 0.622546 0.312120
vt 0.680285 0.383453
vt 0.626394 0.383453
vt 0.626394 0.310677
vt 0.680285 0.310677
vt 0.752400 0.389299
vt 0.683119 0.389299
vt 0.680778 0.317162
vt 0.752400 0.316523
vt 0.621455 0.387953
vt 0.622194 0.316523
vt 0.755548 0.388468
vt 0.757676 0.313564
vt 0.957984 0.261575
vt 0.991049 0.319048
vt 0.979436 0.384329
vt 0.895712 0.238802
vt 0.928578 0.426872
vt 0.833370 0.261385
vt 0.862272 0.426770
vt 0.800130 0.318757
vt 0.811544 0.384072
s 0
usemtl 01_-_Default.006
f 231/315/209 241/317/209 232/316/209
f 241/317/209 231/315/209 240/318/209
f 232/319/210 242/321/210 233/320/210
f 242/321/210 232/319/210 241/322/210
f 233/320/211 243/324/211 234/323/211
f 243/324/211 233/320/211 242/321/211
f 234/325/212 244/327/212 235/326/212
f 244/327/212 234/325/212 243/328/212
f 235/326/213 245/330/213 236/329/213
f 245/330/213 235/326/213 244/327/213
f 236/331/214 246/333/214 237/332/214
f 246/333/214 236/331/214 245/334/214
f 237/335/215 247/337/215 238/336/215
f 247/337/215 237/335/215 246/338/215
f 238/336/216 248/340/216 239/339/216
f 248/340/216 238/336/216 247/337/216
f 239/341/217 240/318/217 231/315/217
f 240/318/217 239/341/217 248/342/217
f 233/343/218 231/345/218 232/344/218
f 231/345/218 233/343/218 234/346/218
f 234/346/218 239/347/218 231/345/218
f 239/347/218 234/346/218 235/348/218
f 235/348/218 238/349/218 239/347/218
f 238/349/218 235/348/218 236/350/218
f 237/351/218 238/349/218 236/350/218
f 249/315/209 250/316/209 259/317/209
f 259/317/209 258/318/209 249/315/209
f 250/319/210 251/320/210 260/321/210
f 260/321/210 259/322/210 250/319/210
f 251/320/211 252/323/211 261/324/211
f 261/324/211 260/321/211 251/320/211
f 252/325/212 253/326/212 262/327/212
f 262/327/212 261/328/212 252/325/212
f 253/326/213 254/329/213 263/330/213
f 263/330/213 262/327/213 253/326/213
f 254/331/214 255/332/214 264/333/214
f 264/333/214 263/334/214 254/331/214
f 255/335/215 256/336/215 265/337/215
f 265/337/215 264/338/215 255/335/215
f 256/336/216 257/339/216 266/340/216
f 266/340/216 265/337/216 256/336/216
f 257/341/217 249/315/217 258/318/217
f 258/318/217 266/342/217 257/341/217
f 251/343/219 250/344/219 249/345/219
f 249/345/219 252/346/219 251/343/219
f 252/346/219 249/345/219 257/347/219
f 257/347/219 253/348/219 252/346/219
f 253/348/219 257/347/219 256/349/219
f 256/349/219 254/350/219 253/348/219
f 255/351/219 254/350/219 256/349/219
